<svg xmlns="http://www.w3.org/2000/svg" viewBox="0 0 243.86 285.78"><defs><style>.cls-1{isolation:isolate;}.cls-2,.cls-3{fill:#fff;}.cls-3{font-size:66.01px;font-family:Bauhaus93, "Bauhaus 93";}</style></defs><title>Asset 2</title><g id="Layer_2" data-name="Layer 2"><g id="Layer_1-2" data-name="Layer 1"><g class="cls-1"><polygon class="cls-2" points="124.76 197.14 121.93 192.28 204.62 144.19 204.8 144.12 205.89 146.76 207.28 149.15 124.76 197.14"/><path class="cls-2" d="M145.35,183.46h-5.51l.11-55a3.28,3.28,0,0,1,1.59-2.81L169,109.6l2.74,4.87-26.24,15.37Zm.11-54.91h0Z"/><polygon class="cls-2" points="208.96 146.67 203.1 146.67 203.1 56.13 125.03 101.64 122.2 96.78 208.96 46.34 208.96 146.67"/><polygon class="cls-2" points="121.07 196.88 73.03 168.94 37.45 148.24 37.61 90.44 43.07 90.44 43.3 92.06 43.07 133.93 43.04 145 88.31 171.33 123.86 192.01 121.07 196.88"/><polygon class="cls-2" points="122.03 101.65 80.57 77.6 34.9 51.24 123.07 0 172.33 28.44 169.52 33.31 123.08 6.5 46.12 51.22 83.38 72.74 124.86 96.78 122.03 101.65"/></g><circle class="cls-2" cx="164.95" cy="135.23" r="3.77"/><text class="cls-3" transform="translate(0 269.28)">Room.ly</text></g></g></svg>