<svg xmlns="http://www.w3.org/2000/svg" viewBox="0 0 225.17 308.8"><defs><style>.cls-1{isolation:isolate;}.cls-2,.cls-3{fill:#fff;}.cls-3{font-size:59px;font-family:Candara-Bold, Candara;font-weight:700;letter-spacing:0.07em;}</style></defs><title>Asset 2</title><g id="Layer_2" data-name="Layer 2"><g id="Layer_1-2" data-name="Layer 1"><g class="cls-1"><path class="cls-2" d="M204.83,50.09,204.55,158v2.25l-2,1.16-87.44,50.79L112,214l-6-3.5L57.89,182.63,19.43,160.25l.17-62.48h5.9l.26,1.74-.26,45.27,0,12,48.94,28.48L111.92,207l18.2-10.54.12-57.61a3.56,3.56,0,0,1,1.72-3l29.64-17.36,3,5.28-28.37,16.61L136.08,193l62.42-36.21V60.67l-87.52,49-.23.13L66,83.89,16.68,55.39,112,0l55.85,32.34L162.2,36,112,7,28.8,55.37,69.09,78.63l43.39,25.16h0Z"/><polygon class="cls-2" points="110.98 109.69 110.87 109.89 110.75 109.82 110.98 109.69"/></g><circle class="cls-2" cx="157.26" cy="146.18" r="4.08"/><text class="cls-3" transform="translate(0 292.41)">room.ly</text></g></g></svg>