<svg xmlns="http://www.w3.org/2000/svg" viewBox="0 0 509.85 597.51"><defs><style>.cls-1{isolation:isolate;}.cls-2,.cls-3{fill:#fff;}.cls-3{font-size:138.01px;font-family:Bauhaus93, "Bauhaus 93";}</style></defs><title>Asset 1</title><g id="Layer_2" data-name="Layer 2"><g id="Layer_1-2" data-name="Layer 1"><g class="cls-1"><polygon class="cls-2" points="260.84 412.18 254.93 402.02 427.82 301.48 428.19 301.32 430.48 306.84 433.38 311.84 260.84 412.18"/><path class="cls-2" d="M303.89,383.57l-11.52,0,.25-115a6.87,6.87,0,0,1,3.32-5.89l57.32-33.55L359,239.34l-54.86,32.12Zm.24-114.8v0Z"/><polygon class="cls-2" points="436.88 306.67 424.64 306.67 424.64 117.35 261.41 212.52 255.5 202.35 436.88 96.88 436.88 306.67"/><polygon class="cls-2" points="253.13 411.63 152.69 353.21 78.3 309.93 78.64 189.1 90.05 189.1 90.54 192.47 90.05 280.01 89.99 303.16 184.64 358.22 258.97 401.45 253.13 411.63"/><polygon class="cls-2" points="255.15 212.52 168.45 162.25 72.97 107.13 257.32 0 360.31 59.46 354.43 69.64 257.34 13.59 96.43 107.1 174.34 152.08 261.05 202.35 255.15 212.52"/></g><circle class="cls-2" cx="344.88" cy="282.73" r="7.89"/><text class="cls-3" transform="translate(0 563)">Room.ly</text></g></g></svg>